<svg width="21" height="15" viewBox="0 0 21 15" fill="none" xmlns="http://www.w3.org/2000/svg">
<path fill-rule="evenodd" clip-rule="evenodd" d="M3.28382 11.5V13.5C3.28382 13.7652 3.38918 14.0196 3.57672 14.2071C3.76425 14.3946 4.01861 14.5 4.28382 14.5H19.2838C19.549 14.5 19.8034 14.3946 19.9909 14.2071C20.1785 14.0196 20.2838 13.7652 20.2838 13.5V5.5C20.2838 5.23478 20.1785 4.98043 19.9909 4.79289C19.8034 4.60536 19.549 4.5 19.2838 4.5H18.0388V6.3345C18.1758 6.5389 18.3611 6.70637 18.5783 6.8221C18.7954 6.93783 19.0378 6.99825 19.2838 6.998V12C18.8875 12.0022 18.5081 12.1613 18.2287 12.4423C17.9492 12.7234 17.7923 13.1036 17.7923 13.5H5.78132C5.77607 13.1059 5.61603 12.7297 5.33575 12.4526C5.05547 12.1755 4.67745 12.0198 4.28333 12.019V11.5H3.28333H3.28382Z" fill="#BC4B52"/>
<path fill-rule="evenodd" clip-rule="evenodd" d="M8.53882 6.5C8.80403 6.5 9.05839 6.39464 9.24592 6.20711C9.43346 6.01957 9.53882 5.76522 9.53882 5.5C9.53882 5.23478 9.43346 4.98043 9.24592 4.79289C9.05839 4.60536 8.80403 4.5 8.53882 4.5C8.2736 4.5 8.01925 4.60536 7.83171 4.79289C7.64418 4.98043 7.53882 5.23478 7.53882 5.5C7.53882 5.76522 7.64418 6.01957 7.83171 6.20711C8.01925 6.39464 8.2736 6.5 8.53882 6.5V6.5ZM8.53882 7.5C9.06925 7.5 9.57796 7.28929 9.95303 6.91421C10.3281 6.53914 10.5388 6.03043 10.5388 5.5C10.5388 4.96957 10.3281 4.46086 9.95303 4.08579C9.57796 3.71071 9.06925 3.5 8.53882 3.5C8.00839 3.5 7.49968 3.71071 7.12461 4.08579C6.74953 4.46086 6.53882 4.96957 6.53882 5.5C6.53882 6.03043 6.74953 6.53914 7.12461 6.91421C7.49968 7.28929 8.00839 7.5 8.53882 7.5Z" fill="#BC4B52"/>
<path fill-rule="evenodd" clip-rule="evenodd" d="M1.03882 0.5C0.773602 0.5 0.519248 0.605357 0.331712 0.792893C0.144175 0.98043 0.0388184 1.23478 0.0388184 1.5V9.5C0.0388184 9.76522 0.144175 10.0196 0.331712 10.2071C0.519248 10.3946 0.773602 10.5 1.03882 10.5H16.0388C16.304 10.5 16.5584 10.3946 16.7459 10.2071C16.9335 10.0196 17.0388 9.76522 17.0388 9.5V1.5C17.0388 1.23478 16.9335 0.98043 16.7459 0.792893C16.5584 0.605357 16.304 0.5 16.0388 0.5H1.03882ZM2.53782 1.5H14.5393C14.5397 1.89743 14.6979 2.27845 14.979 2.55934C15.2602 2.84022 15.6414 2.998 16.0388 2.998V8C15.6424 8.00198 15.2629 8.16093 14.9834 8.44204C14.7038 8.72316 14.547 9.10356 14.5473 9.5H2.53682C2.53183 9.10582 2.37186 8.72946 2.09153 8.4523C1.8112 8.17515 1.43303 8.01949 1.03882 8.019V3C1.23575 3 1.43076 2.96119 1.61269 2.8858C1.79462 2.81041 1.95992 2.6999 2.09912 2.5606C2.23833 2.4213 2.34873 2.25593 2.424 2.07395C2.49927 1.89197 2.53795 1.69694 2.53782 1.5Z" fill="#BC4B52"/>
</svg>
