<svg width="17" height="18" viewBox="0 0 17 18" fill="none" xmlns="http://www.w3.org/2000/svg">
<path d="M16.5999 15.4643C16.0642 14.9867 15.5952 14.4392 15.2055 13.8365C14.7801 13.0046 14.5251 12.0961 14.4555 11.1643V8.41981C14.4592 6.95626 13.9283 5.54174 12.9626 4.44202C11.9969 3.3423 10.6628 2.63307 9.21105 2.44759V1.73092C9.21105 1.53422 9.13291 1.34558 8.99382 1.20649C8.85474 1.0674 8.66609 0.989258 8.46939 0.989258C8.27269 0.989258 8.08404 1.0674 7.94495 1.20649C7.80586 1.34558 7.72772 1.53422 7.72772 1.73092V2.4587C6.28898 2.65755 4.97104 3.37107 4.01801 4.46709C3.06499 5.56312 2.54146 6.96739 2.54439 8.41981V11.1643C2.47481 12.0961 2.21982 13.0046 1.79439 13.8365C1.41154 14.4378 0.950051 14.9852 0.422165 15.4643C0.362905 15.5163 0.31541 15.5804 0.282842 15.6522C0.250273 15.7241 0.233376 15.802 0.233276 15.8809V16.6365C0.233276 16.7838 0.291808 16.9251 0.395995 17.0293C0.500182 17.1335 0.64149 17.192 0.788832 17.192H16.2333C16.3806 17.192 16.5219 17.1335 16.6261 17.0293C16.7303 16.9251 16.7888 16.7838 16.7888 16.6365V15.8809C16.7887 15.802 16.7718 15.7241 16.7393 15.6522C16.7067 15.5804 16.6592 15.5163 16.5999 15.4643ZM1.38883 16.0809C1.90573 15.5816 2.36083 15.022 2.74439 14.4143C3.28028 13.4095 3.59296 12.3009 3.66105 11.1643V8.41981C3.63902 7.76872 3.74823 7.11985 3.98219 6.51185C4.21615 5.90385 4.57006 5.34914 5.02286 4.88076C5.47566 4.41238 6.01808 4.03991 6.61782 3.78552C7.21757 3.53114 7.86237 3.40004 8.51383 3.40004C9.1653 3.40004 9.8101 3.53114 10.4098 3.78552C11.0096 4.03991 11.552 4.41238 12.0048 4.88076C12.4576 5.34914 12.8115 5.90385 13.0455 6.51185C13.2794 7.11985 13.3886 7.76872 13.3666 8.41981V11.1643C13.4347 12.3009 13.7474 13.4095 14.2833 14.4143C14.6668 15.022 15.1219 15.5816 15.6388 16.0809H1.38883Z" fill="#333333"/>
</svg>
