<svg width="124" height="132" viewBox="0 0 124 132" fill="none" xmlns="http://www.w3.org/2000/svg">
<g clip-path="url(#clip0_57_7899)" filter="url(#filter0_d_57_7899)">
<path fill-rule="evenodd" clip-rule="evenodd" d="M62 4.66162C56.681 4.66162 47.7929 6.70441 39.429 8.97847C30.8724 11.2911 22.2464 14.0276 17.1742 15.685C15.0534 16.3853 13.1733 17.6697 11.7497 19.3905C10.3261 21.1114 9.41685 23.1989 9.12633 25.4133C4.53197 59.9249 15.193 85.5022 28.1281 102.423C33.6135 109.661 40.1539 116.035 47.5308 121.332C50.5064 123.436 53.2661 125.048 55.6095 126.15C57.7679 127.167 60.0882 128 62 128C63.9117 128 66.2243 127.167 68.3904 126.15C71.2155 124.777 73.9182 123.165 76.4691 121.332C83.8462 116.035 90.3866 109.661 95.8718 102.423C108.807 85.5022 119.468 59.9249 114.874 25.4133C114.584 23.1978 113.675 21.1091 112.251 19.3869C110.827 17.6648 108.947 16.379 106.826 15.6773C99.4625 13.263 92.0421 11.0269 84.5709 8.97076C76.207 6.71212 67.3189 4.66162 62 4.66162ZM78.5427 44.3303C79.2665 43.6066 80.2481 43.2 81.2716 43.2C82.2951 43.2 83.2767 43.6066 84.0004 44.3303C84.7242 45.0541 85.1308 46.0357 85.1308 47.0592C85.1308 48.0827 84.7242 49.0643 84.0004 49.7881L60.8745 72.914C60.5165 73.2729 60.0911 73.5577 59.6229 73.752C59.1546 73.9463 58.6526 74.0464 58.1456 74.0464C57.6387 74.0464 57.1367 73.9463 56.6684 73.752C56.2001 73.5577 55.7748 73.2729 55.4168 72.914L43.8538 61.351C43.4954 60.9927 43.2112 60.5672 43.0172 60.099C42.8233 59.6308 42.7235 59.129 42.7235 58.6222C42.7235 58.1154 42.8233 57.6135 43.0172 57.1453C43.2112 56.6771 43.4954 56.2517 43.8538 55.8933C44.2122 55.5349 44.6376 55.2507 45.1058 55.0567C45.574 54.8628 46.0759 54.763 46.5827 54.763C47.0895 54.763 47.5913 54.8628 48.0595 55.0567C48.5277 55.2507 48.9532 55.5349 49.3115 55.8933L58.1456 64.7351L78.5427 44.3303Z" fill="#54AC52"/>
</g>
<defs>
<filter id="filter0_d_57_7899" x="-3.66931" y="0.661621" width="131.338" height="131.338" filterUnits="userSpaceOnUse" color-interpolation-filters="sRGB">
<feFlood flood-opacity="0" result="BackgroundImageFix"/>
<feColorMatrix in="SourceAlpha" type="matrix" values="0 0 0 0 0 0 0 0 0 0 0 0 0 0 0 0 0 0 127 0" result="hardAlpha"/>
<feOffset/>
<feGaussianBlur stdDeviation="2"/>
<feColorMatrix type="matrix" values="0 0 0 0 0 0 0 0 0 0 0 0 0 0 0 0 0 0 0.25 0"/>
<feBlend mode="normal" in2="BackgroundImageFix" result="effect1_dropShadow_57_7899"/>
<feBlend mode="normal" in="SourceGraphic" in2="effect1_dropShadow_57_7899" result="shape"/>
</filter>
<clipPath id="clip0_57_7899">
<rect width="123.338" height="123.338" fill="white" transform="translate(0.330688 4.66162)"/>
</clipPath>
</defs>
</svg>
