<svg width="22" height="20" viewBox="0 0 22 20" fill="none" xmlns="http://www.w3.org/2000/svg">
<path d="M6.73877 0.164429C6.10225 0.164429 5.4918 0.417285 5.04171 0.867372C4.59163 1.31746 4.33877 1.92791 4.33877 2.56443V10.9644H5.53877V2.56443C5.53877 2.24617 5.6652 1.94094 5.89024 1.7159C6.11528 1.49086 6.42051 1.36443 6.73877 1.36443H15.1388C15.457 1.36443 15.7623 1.49086 15.9873 1.7159C16.2123 1.94094 16.3388 2.24617 16.3388 2.56443V15.7644H12.7388V16.9644H17.5388C18.4935 16.9644 19.4092 16.5851 20.0844 15.91C20.7595 15.2349 21.1388 14.3192 21.1388 13.3644V10.9644H17.5388V2.56443C17.5388 1.92791 17.2859 1.31746 16.8358 0.867372C16.3857 0.417285 15.7753 0.164429 15.1388 0.164429H6.73877ZM19.9388 13.3644C19.9388 14.0009 19.6859 14.6114 19.2358 15.0615C18.7857 15.5116 18.1753 15.7644 17.5388 15.7644V12.1644H19.9388V13.3644ZM8.53877 3.76443C8.37964 3.76443 8.22703 3.82764 8.1145 3.94016C8.00198 4.05269 7.93877 4.2053 7.93877 4.36443C7.93877 4.52356 8.00198 4.67617 8.1145 4.78869C8.22703 4.90121 8.37964 4.96443 8.53877 4.96443H13.3388C13.4979 4.96443 13.6505 4.90121 13.763 4.78869C13.8756 4.67617 13.9388 4.52356 13.9388 4.36443C13.9388 4.2053 13.8756 4.05269 13.763 3.94016C13.6505 3.82764 13.4979 3.76443 13.3388 3.76443H8.53877ZM7.93877 6.76443C7.93877 6.6053 8.00198 6.45269 8.1145 6.34016C8.22703 6.22764 8.37964 6.16443 8.53877 6.16443H13.3388C13.4979 6.16443 13.6505 6.22764 13.763 6.34016C13.8756 6.45269 13.9388 6.6053 13.9388 6.76443C13.9388 6.92356 13.8756 7.07617 13.763 7.18869C13.6505 7.30121 13.4979 7.36443 13.3388 7.36443H8.53877C8.37964 7.36443 8.22703 7.30121 8.1145 7.18869C8.00198 7.07617 7.93877 6.92356 7.93877 6.76443ZM9.73877 12.1644C10.2162 12.1644 10.674 12.3541 11.0116 12.6916C11.3491 13.0292 11.5388 13.487 11.5388 13.9644V17.5644C11.5388 18.0418 11.3491 18.4997 11.0116 18.8372C10.674 19.1748 10.2162 19.3644 9.73877 19.3644H2.53877C2.06138 19.3644 1.60354 19.1748 1.26598 18.8372C0.928412 18.4997 0.73877 18.0418 0.73877 17.5644V13.9644C0.73877 13.487 0.928412 13.0292 1.26598 12.6916C1.60354 12.3541 2.06138 12.1644 2.53877 12.1644H9.73877ZM10.3388 17.5644V16.3644C9.86138 16.3644 9.40354 16.5541 9.06598 16.8916C8.72841 17.2292 8.53877 17.687 8.53877 18.1644H9.73877C9.73877 18.0053 9.80198 17.8527 9.9145 17.7402C10.027 17.6276 10.1796 17.5644 10.3388 17.5644ZM10.3388 13.9644C10.1796 13.9644 10.027 13.9012 9.9145 13.7887C9.80198 13.6762 9.73877 13.5236 9.73877 13.3644H8.53877C8.53877 13.8418 8.72841 14.2997 9.06598 14.6372C9.40354 14.9748 9.86138 15.1644 10.3388 15.1644V13.9644ZM2.53877 13.3644C2.53877 13.5236 2.47556 13.6762 2.36303 13.7887C2.25051 13.9012 2.0979 13.9644 1.93877 13.9644V15.1644C2.41616 15.1644 2.874 14.9748 3.21156 14.6372C3.54913 14.2997 3.73877 13.8418 3.73877 13.3644H2.53877ZM1.93877 17.5644C2.0979 17.5644 2.25051 17.6276 2.36303 17.7402C2.47556 17.8527 2.53877 18.0053 2.53877 18.1644H3.73877C3.73877 17.687 3.54913 17.2292 3.21156 16.8916C2.874 16.5541 2.41616 16.3644 1.93877 16.3644V17.5644ZM6.13877 13.9644C5.66138 13.9644 5.20354 14.1541 4.86598 14.4916C4.52841 14.8292 4.33877 15.287 4.33877 15.7644C4.33877 16.2418 4.52841 16.6997 4.86598 17.0372C5.20354 17.3748 5.66138 17.5644 6.13877 17.5644C6.61616 17.5644 7.074 17.3748 7.41156 17.0372C7.74913 16.6997 7.93877 16.2418 7.93877 15.7644C7.93877 15.287 7.74913 14.8292 7.41156 14.4916C7.074 14.1541 6.61616 13.9644 6.13877 13.9644Z" fill="#BC4B52"/>
</svg>
