<svg width="19" height="22" viewBox="0 0 19 22" fill="none" xmlns="http://www.w3.org/2000/svg">
<path d="M15.6985 5.00214H12.1085L14.4085 2.71214C14.5017 2.6189 14.5757 2.50821 14.6261 2.38639C14.6766 2.26457 14.7026 2.134 14.7026 2.00214C14.7026 1.87028 14.6766 1.73971 14.6261 1.61789C14.5757 1.49607 14.5017 1.38538 14.4085 1.29214C14.3152 1.1989 14.2046 1.12494 14.0827 1.07448C13.9609 1.02402 13.8303 0.998047 13.6985 0.998047C13.4322 0.998047 13.1768 1.10383 12.9885 1.29214L9.69849 4.59214L6.40849 1.29214C6.31525 1.1989 6.20456 1.12494 6.08274 1.07448C5.96091 1.02402 5.83035 0.998047 5.69849 0.998047C5.56663 0.998047 5.43606 1.02402 5.31424 1.07448C5.19242 1.12494 5.08172 1.1989 4.98849 1.29214C4.80018 1.48044 4.69439 1.73584 4.69439 2.00214C4.69439 2.134 4.72037 2.26457 4.77083 2.38639C4.82129 2.50821 4.89525 2.6189 4.98849 2.71214L7.28849 5.00214H3.69849C2.90284 5.00214 2.13978 5.31821 1.57717 5.88082C1.01456 6.44343 0.698486 7.20649 0.698486 8.00214V18.0021C0.698486 18.7978 1.01456 19.5609 1.57717 20.1235C2.13978 20.6861 2.90284 21.0021 3.69849 21.0021H15.6985C16.4941 21.0021 17.2572 20.6861 17.8198 20.1235C18.3824 19.5609 18.6985 18.7978 18.6985 18.0021V8.00214C18.6985 7.20649 18.3824 6.44343 17.8198 5.88082C17.2572 5.31821 16.4941 5.00214 15.6985 5.00214ZM16.6985 18.0021C16.6985 18.2674 16.5931 18.5217 16.4056 18.7092C16.2181 18.8968 15.9637 19.0021 15.6985 19.0021H3.69849C3.43327 19.0021 3.17892 18.8968 2.99138 18.7092C2.80384 18.5217 2.69849 18.2674 2.69849 18.0021V8.00214C2.69849 7.73692 2.80384 7.48257 2.99138 7.29503C3.17892 7.1075 3.43327 7.00214 3.69849 7.00214H15.6985C15.9637 7.00214 16.2181 7.1075 16.4056 7.29503C16.5931 7.48257 16.6985 7.73692 16.6985 8.00214V18.0021Z" fill="white"/>
</svg>
