<svg width="25" height="24" viewBox="0 0 25 24" fill="none" xmlns="http://www.w3.org/2000/svg">
<path d="M18.5388 8H20.5388C20.804 8 21.0584 8.10536 21.2459 8.29289C21.4335 8.48043 21.5388 8.73478 21.5388 9V21C21.5388 21.2652 21.4335 21.5196 21.2459 21.7071C21.0584 21.8946 20.804 22 20.5388 22H4.53882C4.2736 22 4.01925 21.8946 3.83171 21.7071C3.64418 21.5196 3.53882 21.2652 3.53882 21V9C3.53882 8.73478 3.64418 8.48043 3.83171 8.29289C4.01925 8.10536 4.2736 8 4.53882 8H6.53882V7C6.53882 5.4087 7.17096 3.88258 8.29618 2.75736C9.4214 1.63214 10.9475 1 12.5388 1C14.1301 1 15.6562 1.63214 16.7815 2.75736C17.9067 3.88258 18.5388 5.4087 18.5388 7V8ZM5.53882 10V20H19.5388V10H5.53882ZM11.5388 14H13.5388V16H11.5388V14ZM7.53882 14H9.53882V16H7.53882V14ZM15.5388 14H17.5388V16H15.5388V14ZM16.5388 8V7C16.5388 5.93913 16.1174 4.92172 15.3672 4.17157C14.6171 3.42143 13.5997 3 12.5388 3C11.478 3 10.4605 3.42143 9.71039 4.17157C8.96025 4.92172 8.53882 5.93913 8.53882 7V8H16.5388Z" fill="black"/>
</svg>
