<svg width="21" height="15" viewBox="0 0 21 15" fill="none" xmlns="http://www.w3.org/2000/svg">
<path d="M10.5388 0.330078C11.0693 0.330078 11.578 0.540792 11.953 0.915864C12.3281 1.29094 12.5388 1.79965 12.5388 2.33008C12.5388 2.57008 12.4988 2.80008 12.4188 3.02008C16.4888 3.83008 19.5388 7.24008 19.5388 11.3301H1.53882C1.53882 7.24008 4.58882 3.83008 8.65882 3.02008C8.57882 2.80008 8.53882 2.57008 8.53882 2.33008C8.53882 1.79965 8.74953 1.29094 9.12461 0.915864C9.49968 0.540792 10.0084 0.330078 10.5388 0.330078ZM20.5388 14.3301H0.538818V12.3301H20.5388V14.3301ZM10.5388 4.83008C7.42882 4.83008 4.78882 6.72008 3.87882 9.33008H17.1988C16.2888 6.72008 13.6488 4.83008 10.5388 4.83008Z" fill="#333333"/>
</svg>
