<svg width="22" height="20" viewBox="0 0 22 20" fill="none" xmlns="http://www.w3.org/2000/svg">
<path d="M6.73877 0.72998C6.10225 0.72998 5.4918 0.982837 5.04171 1.43292C4.59163 1.88301 4.33877 2.49346 4.33877 3.12998V11.53H5.53877V3.12998C5.53877 2.81172 5.6652 2.5065 5.89024 2.28145C6.11528 2.05641 6.42051 1.92998 6.73877 1.92998H15.1388C15.457 1.92998 15.7623 2.05641 15.9873 2.28145C16.2123 2.5065 16.3388 2.81172 16.3388 3.12998V16.33H12.7388V17.53H17.5388C18.4935 17.53 19.4092 17.1507 20.0844 16.4756C20.7595 15.8004 21.1388 14.8848 21.1388 13.93V11.53H17.5388V3.12998C17.5388 2.49346 17.2859 1.88301 16.8358 1.43292C16.3857 0.982837 15.7753 0.72998 15.1388 0.72998H6.73877ZM19.9388 13.93C19.9388 14.5665 19.6859 15.1769 19.2358 15.627C18.7857 16.0771 18.1753 16.33 17.5388 16.33V12.73H19.9388V13.93ZM8.53877 4.32998C8.37964 4.32998 8.22703 4.39319 8.1145 4.50572C8.00198 4.61824 7.93877 4.77085 7.93877 4.92998C7.93877 5.08911 8.00198 5.24172 8.1145 5.35424C8.22703 5.46677 8.37964 5.52998 8.53877 5.52998H13.3388C13.4979 5.52998 13.6505 5.46677 13.763 5.35424C13.8756 5.24172 13.9388 5.08911 13.9388 4.92998C13.9388 4.77085 13.8756 4.61824 13.763 4.50572C13.6505 4.39319 13.4979 4.32998 13.3388 4.32998H8.53877ZM7.93877 7.32998C7.93877 7.17085 8.00198 7.01824 8.1145 6.90572C8.22703 6.79319 8.37964 6.72998 8.53877 6.72998H13.3388C13.4979 6.72998 13.6505 6.79319 13.763 6.90572C13.8756 7.01824 13.9388 7.17085 13.9388 7.32998C13.9388 7.48911 13.8756 7.64172 13.763 7.75424C13.6505 7.86677 13.4979 7.92998 13.3388 7.92998H8.53877C8.37964 7.92998 8.22703 7.86677 8.1145 7.75424C8.00198 7.64172 7.93877 7.48911 7.93877 7.32998ZM9.73877 12.73C10.2162 12.73 10.674 12.9196 11.0116 13.2572C11.3491 13.5948 11.5388 14.0526 11.5388 14.53V18.13C11.5388 18.6074 11.3491 19.0652 11.0116 19.4028C10.674 19.7403 10.2162 19.93 9.73877 19.93H2.53877C2.06138 19.93 1.60354 19.7403 1.26598 19.4028C0.928412 19.0652 0.73877 18.6074 0.73877 18.13V14.53C0.73877 14.0526 0.928412 13.5948 1.26598 13.2572C1.60354 12.9196 2.06138 12.73 2.53877 12.73H9.73877ZM10.3388 18.13V16.93C9.86138 16.93 9.40354 17.1196 9.06598 17.4572C8.72841 17.7948 8.53877 18.2526 8.53877 18.73H9.73877C9.73877 18.5709 9.80198 18.4182 9.9145 18.3057C10.027 18.1932 10.1796 18.13 10.3388 18.13ZM10.3388 14.53C10.1796 14.53 10.027 14.4668 9.9145 14.3542C9.80198 14.2417 9.73877 14.0891 9.73877 13.93H8.53877C8.53877 14.4074 8.72841 14.8652 9.06598 15.2028C9.40354 15.5403 9.86138 15.73 10.3388 15.73V14.53ZM2.53877 13.93C2.53877 14.0891 2.47556 14.2417 2.36303 14.3542C2.25051 14.4668 2.0979 14.53 1.93877 14.53V15.73C2.41616 15.73 2.874 15.5403 3.21156 15.2028C3.54913 14.8652 3.73877 14.4074 3.73877 13.93H2.53877ZM1.93877 18.13C2.0979 18.13 2.25051 18.1932 2.36303 18.3057C2.47556 18.4182 2.53877 18.5709 2.53877 18.73H3.73877C3.73877 18.2526 3.54913 17.7948 3.21156 17.4572C2.874 17.1196 2.41616 16.93 1.93877 16.93V18.13ZM6.13877 14.53C5.66138 14.53 5.20354 14.7196 4.86598 15.0572C4.52841 15.3948 4.33877 15.8526 4.33877 16.33C4.33877 16.8074 4.52841 17.2652 4.86598 17.6028C5.20354 17.9403 5.66138 18.13 6.13877 18.13C6.61616 18.13 7.074 17.9403 7.41156 17.6028C7.74913 17.2652 7.93877 16.8074 7.93877 16.33C7.93877 15.8526 7.74913 15.3948 7.41156 15.0572C7.074 14.7196 6.61616 14.53 6.13877 14.53Z" fill="#333333"/>
</svg>
