<svg width="21" height="17" viewBox="0 0 21 17" fill="none" xmlns="http://www.w3.org/2000/svg">
<path d="M13.5388 10.3301V7.33008H16.5388V5.33008L20.5388 8.83008L16.5388 12.3301V10.3301H13.5388ZM12.5388 4.03008V5.33008H0.538818V4.03008L6.53882 0.330078L12.5388 4.03008ZM5.53882 6.33008H7.53882V11.3301H5.53882V6.33008ZM1.53882 6.33008H3.53882V11.3301H1.53882V6.33008ZM11.5388 6.33008V8.83008L9.53882 10.6301V6.33008H11.5388ZM7.63882 12.3301L7.03882 12.8301L8.73882 14.3301H0.538818V12.3301H7.63882ZM15.5388 11.3301V14.3301H12.5388V16.3301L8.53882 12.8301L12.5388 9.33008V11.3301H15.5388Z" fill="#333333"/>
</svg>
