<svg width="20" height="21" viewBox="0 0 20 21" fill="none" xmlns="http://www.w3.org/2000/svg">
<path d="M3.13892 0.930176C2.34327 0.930176 1.5802 1.24625 1.0176 1.80886C0.454987 2.37146 0.138916 3.13453 0.138916 3.93018V14.7302C0.138916 15.5258 0.454987 16.2889 1.0176 16.8515C1.5802 17.4141 2.34327 17.7302 3.13892 17.7302H8.73092C8.60944 17.3415 8.54477 16.9373 8.53892 16.5302H3.13892C2.66153 16.5302 2.20369 16.3405 1.86612 16.003C1.52856 15.6654 1.33892 15.2076 1.33892 14.7302V3.93018C1.33892 3.45279 1.52856 2.99495 1.86612 2.65738C2.20369 2.31982 2.66153 2.13018 3.13892 2.13018H13.9389C14.4163 2.13018 14.8741 2.31982 15.2117 2.65738C15.5493 2.99495 15.7389 3.45279 15.7389 3.93018V5.90418C16.1721 6.03258 16.5765 6.23058 16.9389 6.48258V3.93018C16.9389 3.13453 16.6228 2.37146 16.0602 1.80886C15.4976 1.24625 14.7346 0.930176 13.9389 0.930176H3.13892Z" fill="#333333"/>
<path d="M12.7388 9.93018C12.7388 10.4076 12.9285 10.8654 13.266 11.203C13.6036 11.5405 14.0614 11.7302 14.5388 11.7302H16.9388C16.561 12.2339 16.0343 12.606 15.4333 12.7937C14.8323 12.9815 14.1875 12.9753 13.5901 12.7762C12.9928 12.5771 12.4733 12.1951 12.1051 11.6843C11.7369 11.1735 11.5388 10.5598 11.5388 9.93018C11.5388 9.30053 11.7369 8.68684 12.1051 8.17604C12.4733 7.66525 12.9928 7.28324 13.5901 7.08413C14.1875 6.88501 14.8323 6.87889 15.4333 7.06663C16.0343 7.25438 16.561 7.62646 16.9388 8.13018H14.5388C14.0614 8.13018 13.6036 8.31982 13.266 8.65738C12.9285 8.99495 12.7388 9.45279 12.7388 9.93018Z" fill="#333333"/>
<path d="M11.1562 15.5617C11.3002 15.4021 11.461 15.3301 11.599 15.3301H19.1794C19.0899 15.124 18.9684 14.9332 18.8194 14.7649C18.505 14.4121 18.037 14.1301 17.479 14.1301H11.599C11.041 14.1301 10.573 14.4121 10.2598 14.7649C9.94781 15.1141 9.73901 15.5881 9.73901 16.0741V16.4581C9.73901 18.4189 11.6986 20.1301 14.539 20.1301C16.027 20.1301 17.275 19.6597 18.1246 18.9301H14.539C12.103 18.9301 10.939 17.5249 10.939 16.4581V16.0741C10.939 15.9241 11.011 15.7261 11.1562 15.5617Z" fill="#333333"/>
<path d="M17.5388 9.93008C17.5388 10.1353 17.5184 10.3357 17.4788 10.5301H14.5388V9.33008H17.4788C17.5184 9.52448 17.5388 9.72488 17.5388 9.93008Z" fill="#333333"/>
<path d="M19.052 17.7303H14.5388V16.5303H19.3388C19.3268 16.9467 19.2296 17.3523 19.052 17.7303Z" fill="#333333"/>
</svg>
