<svg width="21" height="15" viewBox="0 0 21 15" fill="none" xmlns="http://www.w3.org/2000/svg">
<path fill-rule="evenodd" clip-rule="evenodd" d="M3.7837 11.3301V13.3301C3.7837 13.5953 3.88906 13.8496 4.0766 14.0372C4.26413 14.2247 4.51849 14.3301 4.7837 14.3301H19.7837C20.0489 14.3301 20.3033 14.2247 20.4908 14.0372C20.6783 13.8496 20.7837 13.5953 20.7837 13.3301V5.33008C20.7837 5.06486 20.6783 4.81051 20.4908 4.62297C20.3033 4.43544 20.0489 4.33008 19.7837 4.33008H18.5387V6.16458C18.6757 6.36898 18.861 6.53645 19.0781 6.65218C19.2953 6.76791 19.5376 6.82833 19.7837 6.82808V11.8301C19.3874 11.8323 19.008 11.9913 18.7285 12.2724C18.4491 12.5535 18.2922 12.9337 18.2922 13.3301H6.2812C6.27595 12.936 6.11591 12.5598 5.83563 12.2827C5.55535 12.0056 5.17733 11.8498 4.7832 11.8491V11.3301H3.7832H3.7837Z" fill="#333333"/>
<path fill-rule="evenodd" clip-rule="evenodd" d="M9.03882 6.33008C9.30403 6.33008 9.55839 6.22472 9.74592 6.03718C9.93346 5.84965 10.0388 5.59529 10.0388 5.33008C10.0388 5.06486 9.93346 4.81051 9.74592 4.62297C9.55839 4.43544 9.30403 4.33008 9.03882 4.33008C8.7736 4.33008 8.51925 4.43544 8.33171 4.62297C8.14418 4.81051 8.03882 5.06486 8.03882 5.33008C8.03882 5.59529 8.14418 5.84965 8.33171 6.03718C8.51925 6.22472 8.7736 6.33008 9.03882 6.33008ZM9.03882 7.33008C9.56925 7.33008 10.078 7.11936 10.453 6.74429C10.8281 6.36922 11.0388 5.86051 11.0388 5.33008C11.0388 4.79965 10.8281 4.29094 10.453 3.91586C10.078 3.54079 9.56925 3.33008 9.03882 3.33008C8.50839 3.33008 7.99968 3.54079 7.62461 3.91586C7.24953 4.29094 7.03882 4.79965 7.03882 5.33008C7.03882 5.86051 7.24953 6.36922 7.62461 6.74429C7.99968 7.11936 8.50839 7.33008 9.03882 7.33008Z" fill="#333333"/>
<path fill-rule="evenodd" clip-rule="evenodd" d="M1.53882 0.330078C1.2736 0.330078 1.01925 0.435435 0.831712 0.622972C0.644175 0.810508 0.538818 1.06486 0.538818 1.33008V9.33008C0.538818 9.59529 0.644175 9.84965 0.831712 10.0372C1.01925 10.2247 1.2736 10.3301 1.53882 10.3301H16.5388C16.804 10.3301 17.0584 10.2247 17.2459 10.0372C17.4335 9.84965 17.5388 9.59529 17.5388 9.33008V1.33008C17.5388 1.06486 17.4335 0.810508 17.2459 0.622972C17.0584 0.435435 16.804 0.330078 16.5388 0.330078H1.53882ZM3.03782 1.33008H15.0393C15.0397 1.72751 15.1979 2.10853 15.479 2.38942C15.7602 2.6703 16.1414 2.82808 16.5388 2.82808V7.83008C16.1424 7.83206 15.7629 7.991 15.4834 8.27212C15.2038 8.55324 15.047 8.93364 15.0473 9.33008H3.03682C3.03183 8.9359 2.87186 8.55953 2.59153 8.28238C2.3112 8.00523 1.93303 7.84957 1.53882 7.84908V2.83008C1.73575 2.83008 1.93076 2.79127 2.11269 2.71588C2.29462 2.64048 2.45992 2.52998 2.59912 2.39068C2.73833 2.25138 2.84873 2.08601 2.924 1.90403C2.99927 1.72204 3.03795 1.52701 3.03782 1.33008Z" fill="#333333"/>
</svg>
