<svg width="25" height="24" viewBox="0 0 25 24" fill="none" xmlns="http://www.w3.org/2000/svg">
<path d="M19.5388 3H13.5388C12.7432 3 11.9801 3.31607 11.4175 3.87868C10.8549 4.44129 10.5388 5.20435 10.5388 6V10H11.5388V6C11.5388 5.46957 11.7495 4.96086 12.1246 4.58579C12.4997 4.21071 13.0084 4 13.5388 4H19.5388C20.0693 4 20.578 4.21071 20.953 4.58579C21.3281 4.96086 21.5388 5.46957 21.5388 6V19C21.5388 19.5304 21.3281 20.0391 20.953 20.4142C20.578 20.7893 20.0693 21 19.5388 21H13.5388C13.0084 21 12.4997 20.7893 12.1246 20.4142C11.7495 20.0391 11.5388 19.5304 11.5388 19V15H10.5388V19C10.5388 19.7956 10.8549 20.5587 11.4175 21.1213C11.9801 21.6839 12.7432 22 13.5388 22H19.5388C20.3345 22 21.0975 21.6839 21.6601 21.1213C22.2227 20.5587 22.5388 19.7956 22.5388 19V6C22.5388 5.20435 22.2227 4.44129 21.6601 3.87868C21.0975 3.31607 20.3345 3 19.5388 3ZM16.5388 12H5.28882L8.53882 8.75L7.87482 8L3.37482 12.5L7.87482 17L8.53882 16.25L5.28882 13H16.5388V12Z" fill="black"/>
</svg>
