<svg width="17" height="20" viewBox="0 0 17 20" fill="none" xmlns="http://www.w3.org/2000/svg">
<path d="M3.73901 5.19992C3.73886 4.2053 4.04768 3.23519 4.62279 2.4237C5.1979 1.61221 6.0109 0.999419 6.94939 0.67003C7.88789 0.340641 8.90553 0.310926 9.86165 0.584992C10.8178 0.859059 11.6651 1.42337 12.2866 2.19992H8.53901V1.59992C7.58423 1.59992 6.66856 1.97921 5.99343 2.65434C5.3183 3.32947 4.93901 4.24514 4.93901 5.19992C4.93901 6.1547 5.3183 7.07038 5.99343 7.74551C6.66856 8.42064 7.58423 8.79992 8.53901 8.79992V8.19992H12.2866C11.6651 8.97647 10.8178 9.54078 9.86165 9.81485C8.90553 10.0889 7.88789 10.0592 6.94939 9.72981C6.0109 9.40042 5.1979 8.78763 4.62279 7.97614C4.04768 7.16465 3.73886 6.19454 3.73901 5.19992Z" fill="black"/>
<path d="M12.9908 6.9998H8.53882V5.7998H13.3028C13.2488 6.2198 13.1432 6.6218 12.9908 6.9998Z" fill="black"/>
<path d="M13.3028 4.5999C13.2515 4.18803 13.1466 3.78462 12.9908 3.3999H8.53882V4.5999H13.3028Z" fill="black"/>
<path d="M0.138916 13.6C0.138916 12.2644 1.22252 11.2 2.54972 11.2H14.5389C14.9592 11.1998 15.3722 11.31 15.7365 11.5195C16.1008 11.729 16.4037 12.0306 16.6149 12.394H8.53892V12.4H2.54972C1.87652 12.4 1.33892 12.9364 1.33892 13.6C1.33892 15.1708 2.08532 16.3407 3.34652 17.1435C4.63052 17.9631 6.45692 18.3999 8.53892 18.3999H13.9629C12.4773 19.2135 10.5717 19.5999 8.53892 19.5999C6.31292 19.5999 4.23932 19.1368 2.70092 18.1564C1.13852 17.1604 0.138916 15.628 0.138916 13.6Z" fill="black"/>
<path d="M8.53882 14.794V13.594H16.9388V13.6C16.9388 14.02 16.8956 14.4172 16.814 14.794H8.53882Z" fill="black"/>
<path d="M16.3916 15.9939C16.168 16.4348 15.8819 16.841 15.542 17.1999H13.6424L13.6508 17.1939H8.53882V15.9939H16.3916Z" fill="black"/>
</svg>
