<svg width="17" height="16" viewBox="0 0 17 16" fill="none" xmlns="http://www.w3.org/2000/svg">
<g clip-path="url(#clip0_60_4048)">
<path d="M13.898 11.238C15.599 9.72 16.539 8 16.539 8C16.539 8 13.539 2.5 8.53902 2.5C7.57862 2.50331 6.62908 2.70342 5.74902 3.088L6.51902 3.859C7.16646 3.62315 7.84997 3.50168 8.53902 3.5C10.659 3.5 12.418 4.668 13.707 5.957C14.3274 6.58069 14.8835 7.26513 15.367 8C15.309 8.087 15.245 8.183 15.172 8.288C14.837 8.768 14.342 9.408 13.707 10.043C13.542 10.208 13.37 10.371 13.19 10.529L13.898 11.238Z" fill="#333333"/>
<path d="M11.8359 9.17635C12.0591 8.5522 12.1004 7.8775 11.9551 7.23077C11.8098 6.58405 11.4838 5.99188 11.0151 5.52317C10.5464 5.05447 9.95424 4.72849 9.30751 4.58318C8.66078 4.43787 7.98609 4.4792 7.36193 4.70235L8.18493 5.52535C8.56924 5.47035 8.96108 5.5056 9.3294 5.62832C9.69772 5.75104 10.0324 5.95785 10.3069 6.23237C10.5814 6.50688 10.7882 6.84156 10.911 7.20988C11.0337 7.5782 11.0689 7.97004 11.0139 8.35435L11.8359 9.17635ZM8.89293 10.4754L9.71493 11.2974C9.09077 11.5205 8.41608 11.5618 7.76935 11.4165C7.12262 11.2712 6.53045 10.9452 6.06175 10.4765C5.59304 10.0078 5.26707 9.41566 5.12176 8.76893C4.97645 8.12221 5.01777 7.44751 5.24093 6.82335L6.06393 7.64635C6.00892 8.03066 6.04417 8.4225 6.16689 8.79083C6.28961 9.15915 6.49642 9.49383 6.77094 9.76834C7.04546 10.0429 7.38014 10.2497 7.74846 10.3724C8.11678 10.4951 8.50862 10.5304 8.89293 10.4754Z" fill="#333333"/>
<path d="M3.88906 5.47048C3.70906 5.63048 3.53606 5.79248 3.37106 5.95748C2.75071 6.58117 2.19458 7.26561 1.71106 8.00048L1.90606 8.28848C2.24106 8.76848 2.73606 9.40848 3.37106 10.0435C4.66006 11.3325 6.42006 12.5005 8.53906 12.5005C9.25506 12.5005 9.92906 12.3675 10.5591 12.1405L11.3291 12.9125C10.449 13.297 9.49947 13.4971 8.53906 13.5005C3.53906 13.5005 0.539062 8.00048 0.539062 8.00048C0.539062 8.00048 1.47806 6.27948 3.18006 4.76248L3.88806 5.47148L3.88906 5.47048ZM14.1851 14.3545L2.18506 2.35448L2.89306 1.64648L14.8931 13.6465L14.1851 14.3545Z" fill="#333333"/>
</g>
<defs>
<clipPath id="clip0_60_4048">
<rect width="16" height="16" fill="white" transform="translate(0.539062)"/>
</clipPath>
</defs>
</svg>
