<svg width="20" height="20" viewBox="0 0 20 20" fill="none" xmlns="http://www.w3.org/2000/svg">
<path d="M3.29858 0.369812C2.50293 0.369812 1.73987 0.685883 1.17726 1.24849C0.614655 1.8111 0.298584 2.57416 0.298584 3.36981V14.1698C0.298584 14.9655 0.614655 15.7285 1.17726 16.2911C1.73987 16.8537 2.50293 17.1698 3.29858 17.1698H8.89058C8.76911 16.7812 8.70444 16.377 8.69858 15.9698H3.29858C2.82119 15.9698 2.36336 15.7802 2.02579 15.4426C1.68823 15.105 1.49858 14.6472 1.49858 14.1698V3.36981C1.49858 2.89242 1.68823 2.43459 2.02579 2.09702C2.36336 1.75945 2.82119 1.56981 3.29858 1.56981H14.0986C14.576 1.56981 15.0338 1.75945 15.3714 2.09702C15.7089 2.43459 15.8986 2.89242 15.8986 3.36981V5.34381C16.3318 5.47221 16.7362 5.67021 17.0986 5.92221V3.36981C17.0986 2.57416 16.7825 1.8111 16.2199 1.24849C15.6573 0.685883 14.8942 0.369812 14.0986 0.369812H3.29858Z" fill="#BC4B52"/>
<path d="M12.8985 9.36981C12.8985 9.8472 13.0881 10.305 13.4257 10.6426C13.7633 10.9802 14.2211 11.1698 14.6985 11.1698H17.0985C16.7207 11.6735 16.194 12.0456 15.593 12.2334C14.992 12.4211 14.3471 12.415 13.7498 12.2159C13.1525 12.0167 12.6329 11.6347 12.2648 11.1239C11.8966 10.6131 11.6985 9.99946 11.6985 9.36981C11.6985 8.74016 11.8966 8.12648 12.2648 7.61568C12.6329 7.10488 13.1525 6.72287 13.7498 6.52376C14.3471 6.32465 14.992 6.31853 15.593 6.50627C16.194 6.69401 16.7207 7.06609 17.0985 7.56981H14.6985C14.2211 7.56981 13.7633 7.75945 13.4257 8.09702C13.0881 8.43458 12.8985 8.89242 12.8985 9.36981Z" fill="#BC4B52"/>
<path d="M11.3159 15.0014C11.4599 14.8418 11.6207 14.7698 11.7587 14.7698H19.3391C19.2496 14.5636 19.1281 14.3729 18.9791 14.2046C18.6647 13.8518 18.1967 13.5698 17.6387 13.5698H11.7587C11.2007 13.5698 10.7327 13.8518 10.4195 14.2046C10.1075 14.5538 9.89868 15.0278 9.89868 15.5138V15.8978C9.89868 17.8586 11.8583 19.5698 14.6987 19.5698C16.1867 19.5698 17.4347 19.0994 18.2843 18.3698H14.6987C12.2627 18.3698 11.0987 16.9646 11.0987 15.8978V15.5138C11.0987 15.3638 11.1707 15.1658 11.3159 15.0014Z" fill="#BC4B52"/>
<path d="M17.6985 9.36984C17.6985 9.57504 17.6781 9.77544 17.6385 9.96984H14.6985V8.76984H17.6385C17.6781 8.96424 17.6985 9.16464 17.6985 9.36984Z" fill="#BC4B52"/>
<path d="M19.2117 17.1698H14.6985V15.9698H19.4985C19.4865 16.3862 19.3893 16.7918 19.2117 17.1698Z" fill="#BC4B52"/>
</svg>
