<svg width="33" height="33" viewBox="0 0 33 33" fill="none" xmlns="http://www.w3.org/2000/svg">
<path d="M2.69849 22.707H30.6985V24.707H2.69849V22.707Z" fill="#BC4B52"/>
<path d="M2.69849 26.707H30.6985V28.707H2.69849V26.707Z" fill="#BC4B52"/>
<path d="M24.6985 10.707C24.3029 10.707 23.9162 10.8243 23.5873 11.0441C23.2584 11.2639 23.0021 11.5762 22.8507 11.9417C22.6994 12.3071 22.6597 12.7092 22.7369 13.0972C22.8141 13.4852 23.0046 13.8415 23.2843 14.1212C23.564 14.4009 23.9203 14.5914 24.3083 14.6686C24.6963 14.7458 25.0984 14.7062 25.4639 14.5548C25.8293 14.4034 26.1417 14.1471 26.3614 13.8182C26.5812 13.4893 26.6985 13.1026 26.6985 12.707C26.6985 12.1766 26.4878 11.6679 26.1127 11.2928C25.7376 10.9177 25.2289 10.707 24.6985 10.707Z" fill="#BC4B52"/>
<path d="M16.6985 16.707C15.9074 16.707 15.134 16.4724 14.4762 16.0329C13.8184 15.5934 13.3057 14.9687 13.003 14.2378C12.7002 13.5069 12.621 12.7026 12.7753 11.9267C12.9297 11.1507 13.3107 10.438 13.8701 9.87861C14.4295 9.3192 15.1422 8.93823 15.9181 8.78389C16.6941 8.62955 17.4983 8.70876 18.2292 9.01151C18.9601 9.31427 19.5848 9.82696 20.0244 10.4848C20.4639 11.1425 20.6985 11.9159 20.6985 12.707C20.6972 13.7675 20.2753 14.7841 19.5255 15.534C18.7756 16.2839 17.7589 16.7057 16.6985 16.707ZM16.6985 10.707C16.3029 10.707 15.9162 10.8243 15.5873 11.0441C15.2585 11.2639 15.0021 11.5762 14.8507 11.9417C14.6994 12.3071 14.6597 12.7093 14.7369 13.0972C14.8141 13.4852 15.0046 13.8415 15.2843 14.1212C15.564 14.401 15.9203 14.5914 16.3083 14.6686C16.6963 14.7458 17.0984 14.7062 17.4639 14.5548C17.8293 14.4034 18.1417 14.1471 18.3614 13.8182C18.5812 13.4893 18.6985 13.1026 18.6985 12.707C18.698 12.1768 18.4871 11.6684 18.1121 11.2934C17.7372 10.9184 17.2288 10.7076 16.6985 10.707Z" fill="#BC4B52"/>
<path d="M8.69849 10.707C8.30292 10.707 7.91625 10.8243 7.58735 11.0441C7.25845 11.2639 7.0021 11.5762 6.85073 11.9417C6.69935 12.3071 6.65975 12.7092 6.73692 13.0972C6.81409 13.4852 7.00457 13.8415 7.28427 14.1212C7.56398 14.4009 7.92034 14.5914 8.30831 14.6686C8.69627 14.7458 9.0984 14.7062 9.46385 14.5548C9.82931 14.4034 10.1417 14.1471 10.3614 13.8182C10.5812 13.4893 10.6985 13.1026 10.6985 12.707C10.6985 12.1766 10.4878 11.6679 10.1127 11.2928C9.73763 10.9177 9.22892 10.707 8.69849 10.707Z" fill="#BC4B52"/>
<path d="M28.6985 20.707H4.69849C4.16846 20.7057 3.66052 20.4946 3.28573 20.1198C2.91094 19.745 2.69981 19.2371 2.69849 18.707V6.70703C2.69981 6.177 2.91094 5.66906 3.28573 5.29428C3.66052 4.91949 4.16846 4.70835 4.69849 4.70703H28.6985C29.2285 4.70835 29.7365 4.91949 30.1112 5.29428C30.486 5.66906 30.6972 6.177 30.6985 6.70703V18.707C30.6977 19.2372 30.4867 19.7455 30.1118 20.1204C29.7369 20.4953 29.2287 20.7062 28.6985 20.707ZM28.6985 6.70703H4.69849V18.707H28.6985V6.70703Z" fill="#BC4B52"/>
</svg>
