<svg width="30" height="28" viewBox="0 0 30 28" fill="none" xmlns="http://www.w3.org/2000/svg">
<path d="M12.6452 6.14504L13.3652 5.35838V10.145C13.3652 10.4987 13.5057 10.8378 13.7557 11.0879C14.0058 11.3379 14.3449 11.4784 14.6985 11.4784C15.0521 11.4784 15.3913 11.3379 15.6413 11.0879C15.8914 10.8378 16.0319 10.4987 16.0319 10.145V5.35838L16.7519 6.09171C16.8729 6.22841 17.0207 6.33879 17.1861 6.41602C17.3516 6.49325 17.5311 6.53568 17.7136 6.54068C17.8961 6.54568 18.0777 6.51314 18.2471 6.44509C18.4166 6.37703 18.5702 6.27491 18.6985 6.14504C18.8235 6.02109 18.9227 5.87363 18.9904 5.71115C19.0581 5.54867 19.0929 5.37439 19.0929 5.19838C19.0929 5.02236 19.0581 4.84809 18.9904 4.68561C18.9227 4.52313 18.8235 4.37566 18.6985 4.25171L15.6452 1.19838C15.5184 1.07699 15.3689 0.981837 15.2052 0.918377C14.8806 0.78502 14.5165 0.78502 14.1919 0.918377C14.0282 0.981837 13.8787 1.07699 13.7519 1.19838L10.6985 4.19838C10.4404 4.45652 10.2954 4.80664 10.2954 5.17171C10.2954 5.53678 10.4404 5.8869 10.6985 6.14504C10.9567 6.40319 11.3068 6.54821 11.6719 6.54821C12.0369 6.54821 12.387 6.40319 12.6452 6.14504ZM14.6985 14.145C13.9074 14.145 13.134 14.3796 12.4762 14.8192C11.8184 15.2587 11.3058 15.8834 11.003 16.6143C10.7003 17.3452 10.621 18.1495 10.7754 18.9254C10.9297 19.7013 11.3107 20.4141 11.8701 20.9735C12.4295 21.5329 13.1422 21.9138 13.9182 22.0682C14.6941 22.2225 15.4984 22.1433 16.2293 21.8406C16.9602 21.5378 17.5849 21.0251 18.0244 20.3673C18.4639 19.7095 18.6985 18.9362 18.6985 18.145C18.6985 17.0842 18.2771 16.0668 17.527 15.3166C16.7768 14.5665 15.7594 14.145 14.6985 14.145ZM14.6985 19.4784C14.4348 19.4784 14.177 19.4002 13.9578 19.2537C13.7385 19.1072 13.5676 18.8989 13.4667 18.6553C13.3658 18.4117 13.3394 18.1436 13.3908 17.8849C13.4423 17.6263 13.5692 17.3887 13.7557 17.2022C13.9422 17.0158 14.1798 16.8888 14.4384 16.8373C14.697 16.7859 14.9651 16.8123 15.2088 16.9132C15.4524 17.0141 15.6606 17.185 15.8072 17.4043C15.9537 17.6235 16.0319 17.8813 16.0319 18.145C16.0319 18.4987 15.8914 18.8378 15.6413 19.0879C15.3913 19.3379 15.0521 19.4784 14.6985 19.4784ZM5.36519 18.145C5.36519 18.4088 5.44339 18.6665 5.5899 18.8858C5.73641 19.1051 5.94465 19.276 6.18828 19.3769C6.43192 19.4778 6.70001 19.5042 6.95865 19.4528C7.21729 19.4013 7.45487 19.2743 7.64134 19.0879C7.82781 18.9014 7.95479 18.6638 8.00624 18.4052C8.05769 18.1465 8.03128 17.8784 7.93037 17.6348C7.82945 17.3912 7.65855 17.1829 7.43929 17.0364C7.22002 16.8899 6.96223 16.8117 6.69853 16.8117C6.3449 16.8117 6.00577 16.9522 5.75572 17.2022C5.50567 17.4523 5.36519 17.7914 5.36519 18.145ZM24.0319 18.145C24.0319 17.8813 23.9537 17.6235 23.8072 17.4043C23.6606 17.185 23.4524 17.0141 23.2088 16.9132C22.9651 16.8123 22.697 16.7859 22.4384 16.8373C22.1798 16.8888 21.9422 17.0158 21.7557 17.2022C21.5692 17.3887 21.4423 17.6263 21.3908 17.8849C21.3394 18.1436 21.3658 18.4117 21.4667 18.6553C21.5676 18.8989 21.7385 19.1072 21.9578 19.2537C22.177 19.4002 22.4348 19.4784 22.6985 19.4784C23.0521 19.4784 23.3913 19.3379 23.6413 19.0879C23.8914 18.8378 24.0319 18.4987 24.0319 18.145ZM25.3652 8.81171H20.0319C19.6782 8.81171 19.3391 8.95219 19.0891 9.20224C18.839 9.45228 18.6985 9.79142 18.6985 10.145C18.6985 10.4987 18.839 10.8378 19.0891 11.0879C19.3391 11.3379 19.6782 11.4784 20.0319 11.4784H25.3652C25.7188 11.4784 26.058 11.6189 26.308 11.8689C26.5581 12.119 26.6985 12.4581 26.6985 12.8117V23.4784C26.6985 23.832 26.5581 24.1711 26.308 24.4212C26.058 24.6712 25.7188 24.8117 25.3652 24.8117H4.03186C3.67824 24.8117 3.3391 24.6712 3.08905 24.4212C2.839 24.1711 2.69853 23.832 2.69853 23.4784V12.8117C2.69853 12.4581 2.839 12.119 3.08905 11.8689C3.3391 11.6189 3.67824 11.4784 4.03186 11.4784H9.36519C9.71881 11.4784 10.058 11.3379 10.308 11.0879C10.5581 10.8378 10.6985 10.4987 10.6985 10.145C10.6985 9.79142 10.5581 9.45228 10.308 9.20224C10.058 8.95219 9.71881 8.81171 9.36519 8.81171H4.03186C2.97099 8.81171 1.95358 9.23314 1.20343 9.98328C0.453288 10.7334 0.0318604 11.7508 0.0318604 12.8117V23.4784C0.0318604 24.5392 0.453288 25.5567 1.20343 26.3068C1.95358 27.057 2.97099 27.4784 4.03186 27.4784H25.3652C26.4261 27.4784 27.4435 27.057 28.1936 26.3068C28.9438 25.5567 29.3652 24.5392 29.3652 23.4784V12.8117C29.3652 11.7508 28.9438 10.7334 28.1936 9.98328C27.4435 9.23314 26.4261 8.81171 25.3652 8.81171Z" fill="#BC4B52"/>
</svg>
