<svg width="27" height="27" viewBox="0 0 27 27" fill="none" xmlns="http://www.w3.org/2000/svg">
<path d="M3.2985 0.777344L3.4425 0.790144C3.60234 0.819346 3.74951 0.896533 3.86441 1.01143C3.97931 1.12633 4.0565 1.2735 4.0857 1.43334L4.0985 1.57734V5.11654C6.01312 2.94493 8.60738 1.48653 11.4577 0.979437C14.3081 0.472344 17.2462 0.946515 19.7923 2.32454C22.3384 3.70256 24.3422 5.90303 25.4764 8.56669C26.6107 11.2304 26.8085 14.1999 26.0375 16.9904C25.2664 19.781 23.5722 22.2277 21.2313 23.9312C18.8904 25.6347 16.0411 26.4943 13.1487 26.3697C10.2563 26.2451 7.49153 25.1436 5.30584 23.245C3.12015 21.3465 1.64263 18.7631 1.1145 15.9165C0.94351 14.8697 0.873855 13.8088 0.906498 12.7485C0.924841 12.5437 1.02134 12.3538 1.17598 12.2183C1.33061 12.0828 1.5315 12.012 1.73695 12.0206C1.94239 12.0293 2.13662 12.1167 2.27932 12.2647C2.42202 12.4128 2.50223 12.6101 2.5033 12.8157C2.47583 13.7554 2.5369 14.6955 2.6857 15.6237C3.15741 18.1683 4.49573 20.4709 6.47317 22.1403C8.45061 23.8097 10.9451 24.7428 13.5327 24.781C16.1203 24.8192 18.6413 23.9602 20.6672 22.3499C22.693 20.7396 24.0988 18.4774 24.6454 15.9479C25.192 13.4184 24.8458 10.7777 23.6656 8.4746C22.4854 6.17149 20.5441 4.34813 18.1716 3.31447C15.7991 2.2808 13.1419 2.10062 10.6516 2.80453C8.16129 3.50845 5.99159 5.05304 4.5113 7.17574L9.6985 7.17734L9.8425 7.19014C10.0269 7.22354 10.1938 7.32065 10.314 7.46452C10.4341 7.60839 10.5 7.78989 10.5 7.97734C10.5 8.16479 10.4341 8.34629 10.314 8.49017C10.1938 8.63404 10.0269 8.73114 9.8425 8.76454L9.6985 8.77734H3.2985L3.1545 8.76454C2.99465 8.73534 2.84749 8.65815 2.73259 8.54325C2.61769 8.42835 2.5405 8.28119 2.5113 8.12134L2.4985 7.97734V1.57734L2.5113 1.43334C2.5405 1.2735 2.61769 1.12633 2.73259 1.01143C2.84749 0.896533 2.99465 0.819346 3.1545 0.790144L3.2985 0.777344ZM12.8985 7.17734L13.0425 7.19014C13.2023 7.21935 13.3495 7.29653 13.4644 7.41143C13.5793 7.52633 13.6565 7.6735 13.6857 7.83334L13.6985 7.97734V14.3837H16.8985L17.0425 14.3965C17.2269 14.4299 17.3938 14.527 17.514 14.6709C17.6341 14.8148 17.7 14.9963 17.7 15.1837C17.7 15.3712 17.6341 15.5527 17.514 15.6966C17.3938 15.8404 17.2269 15.9375 17.0425 15.9709L16.8985 15.9837H12.8985L12.7545 15.9709C12.5947 15.9417 12.4475 15.8646 12.3326 15.7497C12.2177 15.6348 12.1405 15.4876 12.1113 15.3277L12.0985 15.1837V7.97734L12.1113 7.83334C12.1405 7.6735 12.2177 7.52633 12.3326 7.41143C12.4475 7.29653 12.5947 7.21935 12.7545 7.19014L12.8985 7.17734Z" fill="#BC4B52"/>
</svg>
