<svg width="21" height="20" viewBox="0 0 21 20" fill="none" xmlns="http://www.w3.org/2000/svg">
<path d="M6.20001 0.399902C5.56349 0.399902 4.95304 0.652759 4.50295 1.10285C4.05287 1.55293 3.80001 2.16338 3.80001 2.7999V11.1999H5.00001V2.7999C5.00001 2.48164 5.12644 2.17642 5.35148 1.95137C5.57653 1.72633 5.88175 1.5999 6.20001 1.5999H14.6C14.9183 1.5999 15.2235 1.72633 15.4485 1.95137C15.6736 2.17642 15.8 2.48164 15.8 2.7999V15.9999H12.2V17.1999H17C17.9548 17.1999 18.8705 16.8206 19.5456 16.1455C20.2207 15.4704 20.6 14.5547 20.6 13.5999V11.1999H17V2.7999C17 2.16338 16.7472 1.55293 16.2971 1.10285C15.847 0.652759 15.2365 0.399902 14.6 0.399902H6.20001ZM19.4 13.5999C19.4 14.2364 19.1472 14.8469 18.6971 15.297C18.247 15.747 17.6365 15.9999 17 15.9999V12.3999H19.4V13.5999ZM8.00001 3.9999C7.84088 3.9999 7.68827 4.06312 7.57575 4.17564C7.46323 4.28816 7.40001 4.44077 7.40001 4.5999C7.40001 4.75903 7.46323 4.91164 7.57575 5.02417C7.68827 5.13669 7.84088 5.1999 8.00001 5.1999H12.8C12.9591 5.1999 13.1118 5.13669 13.2243 5.02417C13.3368 4.91164 13.4 4.75903 13.4 4.5999C13.4 4.44077 13.3368 4.28816 13.2243 4.17564C13.1118 4.06312 12.9591 3.9999 12.8 3.9999H8.00001ZM7.40001 6.9999C7.40001 6.84077 7.46323 6.68816 7.57575 6.57564C7.68827 6.46312 7.84088 6.3999 8.00001 6.3999H12.8C12.9591 6.3999 13.1118 6.46312 13.2243 6.57564C13.3368 6.68816 13.4 6.84077 13.4 6.9999C13.4 7.15903 13.3368 7.31164 13.2243 7.42417C13.1118 7.53669 12.9591 7.5999 12.8 7.5999H8.00001C7.84088 7.5999 7.68827 7.53669 7.57575 7.42417C7.46323 7.31164 7.40001 7.15903 7.40001 6.9999ZM9.20001 12.3999C9.6774 12.3999 10.1352 12.5895 10.4728 12.9271C10.8104 13.2647 11 13.7225 11 14.1999V17.7999C11 18.2773 10.8104 18.7351 10.4728 19.0727C10.1352 19.4103 9.6774 19.5999 9.20001 19.5999H2.00001C1.52262 19.5999 1.06479 19.4103 0.72722 19.0727C0.389655 18.7351 0.200012 18.2773 0.200012 17.7999V14.1999C0.200012 13.7225 0.389655 13.2647 0.72722 12.9271C1.06479 12.5895 1.52262 12.3999 2.00001 12.3999H9.20001ZM9.80001 17.7999V16.5999C9.32262 16.5999 8.86478 16.7895 8.52722 17.1271C8.18965 17.4647 8.00001 17.9225 8.00001 18.3999H9.20001C9.20001 18.2408 9.26322 18.0882 9.37575 17.9756C9.48827 17.8631 9.64088 17.7999 9.80001 17.7999ZM9.80001 14.1999C9.64088 14.1999 9.48827 14.1367 9.37575 14.0242C9.26322 13.9116 9.20001 13.759 9.20001 13.5999H8.00001C8.00001 14.0773 8.18965 14.5351 8.52722 14.8727C8.86478 15.2103 9.32262 15.3999 9.80001 15.3999V14.1999ZM2.00001 13.5999C2.00001 13.759 1.9368 13.9116 1.82428 14.0242C1.71175 14.1367 1.55914 14.1999 1.40001 14.1999V15.3999C1.8774 15.3999 2.33524 15.2103 2.6728 14.8727C3.01037 14.5351 3.20001 14.0773 3.20001 13.5999H2.00001ZM1.40001 17.7999C1.55914 17.7999 1.71175 17.8631 1.82428 17.9756C1.9368 18.0882 2.00001 18.2408 2.00001 18.3999H3.20001C3.20001 17.9225 3.01037 17.4647 2.6728 17.1271C2.33524 16.7895 1.8774 16.5999 1.40001 16.5999V17.7999ZM5.60001 14.1999C5.12262 14.1999 4.66478 14.3895 4.32722 14.7271C3.98965 15.0647 3.80001 15.5225 3.80001 15.9999C3.80001 16.4773 3.98965 16.9351 4.32722 17.2727C4.66478 17.6103 5.12262 17.7999 5.60001 17.7999C6.0774 17.7999 6.53524 17.6103 6.8728 17.2727C7.21037 16.9351 7.40001 16.4773 7.40001 15.9999C7.40001 15.5225 7.21037 15.0647 6.8728 14.7271C6.53524 14.3895 6.0774 14.1999 5.60001 14.1999Z" fill="#BC4B52"/>
</svg>
