<svg width="176" height="76" viewBox="0 0 176 76" fill="none" xmlns="http://www.w3.org/2000/svg">
<path d="M81.9811 28.7586V45.7026H79.2451V28.7586H81.9811ZM96.428 41.1906C96.428 42.0226 96.228 42.7986 95.828 43.5186C95.428 44.2226 94.82 44.7906 94.004 45.2226C93.188 45.6546 92.188 45.8706 91.004 45.8706C89.852 45.8706 88.82 45.6706 87.908 45.2706C86.996 44.8546 86.268 44.2786 85.724 43.5426C85.18 42.8066 84.868 41.9586 84.788 40.9986H87.716C87.796 41.7346 88.108 42.3666 88.652 42.8946C89.212 43.4226 89.956 43.6866 90.884 43.6866C91.716 43.6866 92.356 43.4626 92.804 43.0146C93.268 42.5666 93.5 41.9906 93.5 41.2866C93.5 40.6786 93.332 40.1826 92.996 39.7986C92.66 39.3986 92.244 39.0866 91.748 38.8626C91.252 38.6386 90.572 38.3826 89.708 38.0946C88.652 37.7586 87.788 37.4226 87.116 37.0866C86.46 36.7506 85.9 36.2626 85.436 35.6226C84.972 34.9826 84.74 34.1426 84.74 33.1026C84.74 32.1906 84.964 31.3906 85.412 30.7026C85.86 30.0146 86.5 29.4866 87.332 29.1186C88.164 28.7346 89.124 28.5426 90.212 28.5426C91.94 28.5426 93.308 28.9586 94.316 29.7906C95.34 30.6226 95.924 31.7106 96.068 33.0546H93.116C93.004 32.4146 92.7 31.8706 92.204 31.4226C91.724 30.9586 91.06 30.7266 90.212 30.7266C89.444 30.7266 88.828 30.9266 88.364 31.3266C87.9 31.7106 87.668 32.2706 87.668 33.0066C87.668 33.5826 87.828 34.0626 88.148 34.4466C88.468 34.8146 88.868 35.1106 89.348 35.3346C89.844 35.5426 90.516 35.7906 91.364 36.0786C92.436 36.4146 93.308 36.7586 93.98 37.1106C94.668 37.4466 95.244 37.9426 95.708 38.5986C96.188 39.2546 96.428 40.1186 96.428 41.1906ZM101.903 43.5666H107.759V45.7026H99.167V28.7586H101.903V43.5666ZM120.005 42.0306H112.853L111.557 45.7026H108.629L114.869 29.0226H118.013L124.229 45.7026H121.301L120.005 42.0306ZM119.237 39.9186L116.429 31.9986L113.621 39.9186H119.237ZM139.965 45.7026H137.229L128.997 33.1986V45.7026H126.261V28.7826H128.997L137.229 41.3346V28.7826H139.965V45.7026ZM157.82 37.2066C157.82 38.9186 157.468 40.4146 156.764 41.6946C156.076 42.9586 155.06 43.9426 153.716 44.6466C152.388 45.3506 150.796 45.7026 148.94 45.7026H143.276V28.7586H148.94C150.796 28.7586 152.388 29.1106 153.716 29.8146C155.06 30.5026 156.076 31.4786 156.764 32.7426C157.468 34.0066 157.82 35.4946 157.82 37.2066ZM148.724 43.2306C150.756 43.2306 152.316 42.7026 153.404 41.6466C154.492 40.5906 155.036 39.1106 155.036 37.2066C155.036 35.3026 154.492 33.8226 153.404 32.7666C152.316 31.7106 150.756 31.1826 148.724 31.1826H146.012V43.2306H148.724Z" fill="white"/>
<rect x="0.00787354" y="44.5014" width="43.4832" height="43.4832" transform="rotate(-45.2904 0.00787354 44.5014)" fill="#BC4B52"/>
<rect x="20.8269" y="64.2124" width="13.9695" height="13.9695" transform="rotate(-45.2904 20.8269 64.2124)" fill="white"/>
<rect x="0.163696" y="31.8103" width="43.4832" height="43.4832" transform="rotate(-45.2904 0.163696 31.8103)" fill="#BC4B52"/>
</svg>
