<svg width="265" height="14" viewBox="0 0 265 14" fill="none" xmlns="http://www.w3.org/2000/svg">
<line x1="9.66162" y1="7.44775" x2="257.039" y2="7.44775" stroke="#666A86" stroke-linecap="round" stroke-linejoin="round" stroke-dasharray="5 5"/>
<path d="M7.53927 0.127997C9.27528 0.127997 10.9402 0.817623 12.1677 2.04517C13.3953 3.27271 14.0849 4.93761 14.0849 6.67362C14.0849 8.40962 13.3953 10.0745 12.1677 11.3021C10.9402 12.5296 9.27528 13.2192 7.53927 13.2192L7.53927 6.67362L7.53927 0.127997Z" fill="#BC4B52"/>
<path d="M257.539 0.127997C255.803 0.127997 254.138 0.817623 252.911 2.04517C251.683 3.27271 250.994 4.93761 250.994 6.67362C250.994 8.40962 251.683 10.0745 252.911 11.3021C254.138 12.5296 255.803 13.2192 257.539 13.2192L257.539 6.67362V0.127997Z" fill="#BC4B52"/>
</svg>
