<svg width="14" height="14" viewBox="0 0 14 14" fill="none" xmlns="http://www.w3.org/2000/svg">
<path d="M1.16665 7.83336H10.475L6.40831 11.9C6.08331 12.225 6.08331 12.7584 6.40831 13.0834C6.73331 13.4084 7.25831 13.4084 7.58331 13.0834L13.075 7.59169C13.1522 7.5146 13.2135 7.42302 13.2553 7.32221C13.2972 7.2214 13.3187 7.11333 13.3187 7.00419C13.3187 6.89505 13.2972 6.78698 13.2553 6.68617C13.2135 6.58536 13.1522 6.49379 13.075 6.41669L7.59165 0.91669C7.51449 0.839539 7.4229 0.778338 7.3221 0.736584C7.2213 0.69483 7.11326 0.67334 7.00415 0.67334C6.89504 0.67334 6.787 0.69483 6.68619 0.736584C6.58539 0.778338 6.4938 0.839539 6.41665 0.91669C6.3395 0.993842 6.27829 1.08543 6.23654 1.18624C6.19479 1.28704 6.1733 1.39508 6.1733 1.50419C6.1733 1.6133 6.19479 1.72134 6.23654 1.82214C6.27829 1.92295 6.3395 2.01454 6.41665 2.09169L10.475 6.16669H1.16665C0.708313 6.16669 0.333313 6.54169 0.333313 7.00002C0.333313 7.45836 0.708313 7.83336 1.16665 7.83336Z" fill="black" fill-opacity="0.29"/>
</svg>
