<svg width="41" height="41" viewBox="0 0 41 41" fill="none" xmlns="http://www.w3.org/2000/svg">
<path fill-rule="evenodd" clip-rule="evenodd" d="M28 13.0024C28.2652 13.0024 28.5196 13.1077 28.7071 13.2953C28.8946 13.4828 29 13.7372 29 14.0024V16.0024C29 16.2676 28.8946 16.522 28.7071 16.7095C28.5196 16.897 28.2652 17.0024 28 17.0024C27.7348 17.0024 27.4804 16.897 27.2929 16.7095C27.1054 16.522 27 16.2676 27 16.0024V14.0024C27 13.7372 27.1054 13.4828 27.2929 13.2953C27.4804 13.1077 27.7348 13.0024 28 13.0024V13.0024Z" stroke="#333333" stroke-linecap="round" stroke-linejoin="round"/>
<path d="M40 15.0024H29" stroke="#333333" stroke-linecap="round" stroke-linejoin="round"/>
<path d="M27 15.0024H24" stroke="#333333" stroke-linecap="round" stroke-linejoin="round"/>
<path fill-rule="evenodd" clip-rule="evenodd" d="M28 23.0024C28.2652 23.0024 28.5196 23.1078 28.7071 23.2953C28.8946 23.4829 29 23.7372 29 24.0024V26.0024C29 26.2677 28.8946 26.522 28.7071 26.7095C28.5196 26.8971 28.2652 27.0024 28 27.0024C27.7348 27.0024 27.4804 26.8971 27.2929 26.7095C27.1054 26.522 27 26.2677 27 26.0024V24.0024C27 23.7372 27.1054 23.4829 27.2929 23.2953C27.4804 23.1078 27.7348 23.0024 28 23.0024Z" stroke="#333333" stroke-linecap="round" stroke-linejoin="round"/>
<path d="M40 25.0024H29" stroke="#333333" stroke-linecap="round" stroke-linejoin="round"/>
<path d="M27 25.0024H24" stroke="#333333" stroke-linecap="round" stroke-linejoin="round"/>
<path fill-rule="evenodd" clip-rule="evenodd" d="M36 18.002C36.2652 18.002 36.5196 18.1073 36.7071 18.2948C36.8946 18.4824 37 18.7367 37 19.002V21.002C37 21.2672 36.8946 21.5215 36.7071 21.7091C36.5196 21.8966 36.2652 22.002 36 22.002C35.7348 22.002 35.4804 21.8966 35.2929 21.7091C35.1054 21.5215 35 21.2672 35 21.002V19.002C35 18.7367 35.1054 18.4824 35.2929 18.2948C35.4804 18.1073 35.7348 18.002 36 18.002V18.002Z" stroke="#333333" stroke-linecap="round" stroke-linejoin="round"/>
<path d="M35 20.002H24" stroke="#333333" stroke-linecap="round" stroke-linejoin="round"/>
<path d="M40 20.002H37" stroke="#333333" stroke-linecap="round" stroke-linejoin="round"/>
</svg>
