<svg width="23" height="18" viewBox="0 0 23 18" fill="none" xmlns="http://www.w3.org/2000/svg">
<path d="M22.0917 6.25366L19.365 3.52699C19.2408 3.40383 19.0732 3.3344 18.8983 3.33366H15.565V2.03366C15.574 1.68336 15.4448 1.34359 15.2053 1.08783C14.9657 0.832071 14.6351 0.680892 14.285 0.666992H8.84501C8.6739 0.673725 8.50588 0.714722 8.35091 0.787555C8.19593 0.860388 8.05714 0.963577 7.94276 1.09101C7.82838 1.21845 7.74073 1.36754 7.68501 1.52945C7.62928 1.69137 7.60661 1.86282 7.61834 2.03366V3.33366H4.33834C4.2506 3.33315 4.16363 3.34997 4.0824 3.38315C4.00118 3.41632 3.9273 3.4652 3.865 3.52699L1.145 6.25366C1.08322 6.31595 1.03433 6.38983 1.00116 6.47106C0.967981 6.55228 0.951164 6.63925 0.951671 6.72699V16.667C0.951671 17.0206 1.09215 17.3598 1.3422 17.6098C1.59224 17.8598 1.93138 18.0003 2.285 18.0003H20.9517C21.3053 18.0003 21.6444 17.8598 21.8945 17.6098C22.1445 17.3598 22.285 17.0206 22.285 16.667V6.72033C22.2843 6.54543 22.2148 6.37783 22.0917 6.25366ZM8.95167 2.00033H14.285V3.33366H8.95167V2.00033ZM20.9517 9.33366H14.285V10.6203H20.9517V16.667H2.285V10.6203H8.95167V9.33366H2.285V7.00033L4.61834 4.66699H18.6183L20.9517 7.00033V9.33366Z" fill="white"/>
</svg>
